Coordinates
version=1
nRows=13
nColumns=34
inDegrees=yes

Units are S.I. units (second, meters, Newtons, ...)
If the header above contains a line with 'inDegrees', this indicates whether rotational values are in degrees (yes) or radians (no).

endheader
time	pelvis_tilt	pelvis_list	pelvis_rotation	pelvis_tx	pelvis_ty	pelvis_tz	hip_flexion_r	hip_adduction_r	hip_rotation_r	knee_angle_r	ankle_angle_r	subtalar_angle_r	mtp_angle_r	hip_flexion_l	hip_adduction_l	hip_rotation_l	knee_angle_l	ankle_angle_l	subtalar_angle_l	mtp_angle_l	lumbar_extension	lumbar_bending	lumbar_rotation	arm_flex_r	arm_add_r	arm_rot_r	elbow_flex_r	pro_sup_r	arm_flex_l	arm_add_l	arm_rot_l	elbow_flex_l	pro_sup_l
      4.48333330	     -1.25135453	      2.86606470	     -2.51555397	     -0.03093783	      0.80504773	      0.09188814	     39.47932195	      3.97921591	    -11.12974849	     68.33040925	    -40.29011521	    -35.00000000	      0.00000000	     44.90704612	     -4.67061279	    -16.68586412	      0.00000000	    -19.80283586	      8.96818023	      0.00000000	    -28.87881027	      3.44059883	      4.51172761	     69.06102552	      2.94525956	     66.22088448	    128.53218747	     91.23866728	     79.79480547	     16.90838055	     75.77165726	    124.32535467	     71.65122351
      4.50000000	     -0.81199763	      2.42619491	     -2.82096701	     -0.02645725	      0.81010063	      0.09256926	     37.66251433	      4.56869132	    -11.10129317	     66.58859069	    -48.39612949	    -35.00000000	      0.00000000	     44.66220552	     -5.26768398	    -17.57366335	      0.00000000	    -20.78335404	      8.89559635	      0.00000000	    -28.87033113	      3.78474638	      5.21952100	     69.13524962	      2.74443993	     66.62020904	    128.97486604	     90.88264016	     80.07124451	     17.05041883	     75.35309029	    124.21638982	     71.46904066
      4.51666670	     -0.36815274	      2.25921697	     -2.38715793	     -0.02640081	      0.81605503	      0.09198938	     36.02166195	      4.09935275	    -12.26050844	     65.21368072	    -42.92959984	    -35.00000000	      0.00000000	     44.48770373	     -5.07846359	    -17.49141150	      0.00000000	    -19.92503774	     10.23368676	      0.00000000	    -28.75863308	      4.14631974	      5.23397896	     69.54308404	      2.62621647	     66.75795351	    129.08901226	     90.53472503	     80.32318082	     17.17302523	     75.20461709	    124.08199111	     71.24762965
      4.53333330	      0.29985797	      2.10701341	     -2.30771779	     -0.02251807	      0.82256157	      0.09214347	     34.06012490	      3.55978775	    -13.64138515	     63.76906852	    -20.50680525	    -35.00000000	      0.00000000	     43.93418986	     -5.16037144	    -16.52998449	      0.00000000	    -17.57656425	     12.62802369	      0.00000000	    -28.53362014	      4.44149268	      4.87932953	     69.00058226	      2.91502084	     67.22838426	    129.37339677	     90.37115351	     80.17202580	     16.79644729	     74.87235966	    124.05184447	     71.01125158
      4.55000000	      1.08426671	      2.01423765	     -2.04752754	     -0.02548892	      0.82892929	      0.09203008	     32.70604660	      3.30700830	    -14.39745860	     62.56082615	    -15.14803703	    -35.00000000	      0.00000000	     43.29196726	     -5.11878284	    -15.75681563	      0.00000000	    -16.33750180	     14.16665060	      0.00000000	    -28.49868941	      4.80781463	      4.59246045	     69.05754043	      3.20582808	     66.77071816	    129.03034401	     90.20904958	     80.49563095	     16.43718553	     73.96641969	    123.93717654	     70.68180101
      4.56666670	      1.54088889	      2.27293104	     -1.64945652	     -0.01988179	      0.83787701	      0.09276885	     31.45622333	      2.86031295	    -14.83708570	     61.05301380	     -9.99629148	    -35.00000000	      0.00000000	     42.65338250	     -4.78332775	    -15.01057310	      0.00000000	    -15.38128004	     15.28875302	      0.00000000	    -27.99300103	      4.74701464	      4.21712457	     68.66229033	      3.12530646	     65.98237576	    128.47865469	     90.08185969	     80.19519601	     16.27423069	     73.65841076	    123.95325002	     70.33397643
      4.58333330	      1.70193243	      1.97960039	     -1.70151551	     -0.02008689	      0.84522959	      0.09226279	     30.10025619	      2.98481176	    -15.65119164	     58.77679189	    -10.21972637	    -35.00000000	      0.00000000	     42.79964114	     -5.08916592	    -14.29988278	      0.00000000	    -15.25670899	     16.43221364	      0.00000000	    -27.20696688	      5.09745012	      4.15273561	     67.85105684	      3.24316030	     66.20636887	    128.97838177	     90.08245941	     79.69321444	     16.16083895	     73.53431539	    123.81724799	     70.19112463
      4.60000000	      1.27470979	      1.80607831	     -1.59490470	     -0.01567287	      0.84848385	      0.09192347	     28.94732738	      3.74712304	    -15.12098874	     55.67202816	      2.26797682	    -35.00000000	      0.00000000	     43.78271284	     -5.27968764	    -14.04552027	      0.00000000	    -14.63969577	     18.03494213	      0.00000000	    -25.71545598	      5.28839259	      3.98213727	     67.13151999	      3.29858030	     66.36533197	    129.80665666	     90.12077350	     79.06362619	     16.29516719	     73.05549795	    123.90048178	     69.91504819
      4.61666670	      0.87691167	      2.19911911	     -2.06724686	     -0.01997060	      0.85410996	      0.09405924	     29.22279113	      4.20949553	    -13.69520867	     53.18614290	     10.68494614	    -35.00000000	      0.00000000	     44.26533960	     -5.56886875	    -13.85185152	      0.00000000	    -15.47819172	     18.10152899	      0.00000000	    -24.55623082	      4.61082373	      3.93173669	     66.88986806	      3.90035418	     66.64069744	    130.59966362	     90.21177694	     78.84890424	     16.22218237	     72.85174980	    124.13842265	     69.69307601
      4.63333330	      0.60656632	      3.11515040	     -1.99301573	     -0.01386983	      0.86460337	      0.09504959	     28.49459631	      3.66596817	    -12.92349633	     50.96696870	     10.95489701	    -35.00000000	      0.00000000	     44.38096778	     -4.98987838	    -13.48469913	      0.00000000	    -16.26634274	     17.77629293	      0.00000000	    -23.27513103	      3.55035465	      3.32192734	     65.93947465	      4.43941022	     67.42792248	    131.45530370	     90.34246468	     77.81462825	     16.20940648	     73.08617565	    124.31253240	     69.57724382
      4.65000000	      0.25499266	      4.55781093	     -1.85262317	     -0.01325817	      0.87180701	      0.09555243	     27.14752370	      1.92140161	    -13.38757913	     49.58367061	      7.35383695	    -35.00000000	      0.00000000	     44.29728644	     -3.91672465	    -13.48576089	      0.00000000	    -17.38543024	     16.17142155	      0.00000000	    -21.65943288	      1.92101442	      2.52134575	     65.28527448	      4.76244795	     68.42615389	    132.22074015	     90.64617874	     77.08685308	     16.33448330	     73.49890505	    124.31650267	     69.38016601
      4.66666670	      0.06814300	      6.34159384	     -1.40601784	     -0.00979107	      0.88101904	      0.09612020	     26.08633852	     -0.03168495	    -13.00789217	     47.88726227	      6.32494075	    -34.52497203	      0.00000000	     43.69444210	     -2.43610519	    -13.62061613	      0.00000000	    -16.94927292	     14.25816097	      0.00000000	    -20.43227786	      0.00746515	      1.48730071	     64.51135055	      5.18593544	     69.12309324	    132.84087717	     90.92020386	     76.83850784	     16.12775992	     73.88677228	    124.41124492	     69.25830088
      4.68333330	      0.73061121	      5.35154182	     -1.87405329	     -0.00039675	      0.89028192	      0.09565607	     23.20919704	      1.59565347	    -11.92657377	     44.52812100	     15.30055842	    -27.66911070	      0.00000000	     43.61051295	     -3.53719010	    -13.34892394	      0.00000000	    -15.19196094	     17.45134617	      0.00000000	    -19.49068350	      0.74680412	      2.00433716	     63.86319043	      4.25713943	     67.59001903	    132.71195556	     91.47833949	     76.33782590	     16.45468890	     73.35387212	    123.78007594	     68.55526927
